<svg width="60" height="60" xmlns="http://www.w3.org/2000/svg" xmlns:xlink="http://www.w3.org/1999/xlink"><defs><path id="a" d="M0 0h60v60H0z"/></defs><g fill="none" fill-rule="evenodd"><mask id="b" fill="#fff"><use xlink:href="#a"/></mask><path d="M4.225 44.582l25.096 10.844V26.383L4.226 16.662v27.92zM30 60c-.44 0-.881-.09-1.294-.269L1.95 48.098A3.243 3.243 0 0 1 0 45.124V14.878c0-1.292.765-2.46 1.95-2.975L28.706.269a3.244 3.244 0 0 1 2.587 0L58.05 11.903A3.243 3.243 0 0 1 60 14.878v30.246c0 1.29-.766 2.46-1.95 2.974L31.293 59.731A3.25 3.25 0 0 1 30 60z" fill="#E2E6E8" mask="url(#b)"/></g></svg>
